HIERARCHY
ROOT Hips
{
  OFFSET 53.3369 95.6915 11.2854
  CHANNELS 6 Xposition Yposition Zposition Zrotation Xrotation Yrotation
  JOINT spine
  {
    OFFSET 0 7.96568 0.458067
    CHANNELS 3 Zrotation Xrotation Yrotation
    JOINT spine1
    {
      OFFSET 0 10.2431 0
      CHANNELS 3 Zrotation Xrotation Yrotation
      JOINT spine2
      {
        OFFSET 0 9.81475 0
        CHANNELS 3 Zrotation Xrotation Yrotation
        JOINT Neck
        {
          OFFSET 0 25.1986 1.20138
          CHANNELS 3 Zrotation Xrotation Yrotation
          JOINT Head
          {
            OFFSET 0 7.61315 0
            CHANNELS 3 Zrotation Xrotation Yrotation
            End Site
            {
              OFFSET 0 18.4281 -6.07733
            }
          }
        }
        JOINT RightShoulder
        {
          OFFSET -4.1327 10.5992 -0.575451
          CHANNELS 3 Zrotation Xrotation Yrotation
          JOINT RightArm
          {
            OFFSET 0 13.9018 0
            CHANNELS 3 Zrotation Xrotation Yrotation
            JOINT RightArmRoll
            {
              OFFSET 0 7.01788 0
              CHANNELS 3 Zrotation Xrotation Yrotation
              JOINT RightForeArm
              {
                OFFSET 0 20.4406 0
                CHANNELS 3 Zrotation Xrotation Yrotation
                JOINT RightForeArmRoll
                {
                  OFFSET 0 7.87515 0
                  CHANNELS 3 Zrotation Xrotation Yrotation
                  JOINT RightHand
                  {
                    OFFSET 0 15.8037 0
                    CHANNELS 3 Zrotation Xrotation Yrotation
                    End Site
                    {
                      OFFSET 0 0 0
                    }
                  }
                }
              }
            }
          }
        }
        JOINT LeftShoulder
        {
          OFFSET 4.1327 10.5992 -0.575451
          CHANNELS 3 Zrotation Xrotation Yrotation
          JOINT LeftArm
          {
            OFFSET 0 13.9018 0
            CHANNELS 3 Zrotation Xrotation Yrotation
            JOINT LeftArmRoll
            {
              OFFSET 0 7.01789 0
              CHANNELS 3 Zrotation Xrotation Yrotation
              JOINT LeftForeArm
              {
                OFFSET 0 20.4406 0
                CHANNELS 3 Zrotation Xrotation Yrotation
                JOINT LeftForeArmRoll
                {
                  OFFSET 0 7.87515 0
                  CHANNELS 3 Zrotation Xrotation Yrotation
                  JOINT LeftHand
                  {
                    OFFSET 0 15.8037 0
                    CHANNELS 3 Zrotation Xrotation Yrotation
                    End Site
                    {
                      OFFSET 0 0 0
                    }
                  }
                }
              }
            }
          }
        }
      }
    }
  }
  JOINT RightUpLeg
  {
    OFFSET -7.06048 -1.2947 -1.08609
    CHANNELS 3 Zrotation Xrotation Yrotation
    JOINT RightUpLegRoll
    {
      OFFSET 0 18.5308 0
      CHANNELS 3 Zrotation Xrotation Yrotation
      JOINT RightLeg
      {
        OFFSET 0 -22.9476 0
        CHANNELS 3 Zrotation Xrotation Yrotation
        JOINT RightLegRoll
        {
          OFFSET 0 23.0226 0
          CHANNELS 3 Zrotation Xrotation Yrotation
          JOINT RightFoot
          {
            OFFSET 0 19.1625 0
            CHANNELS 3 Zrotation Xrotation Yrotation
            JOINT RightToeBase
            {
              OFFSET 0 16.0188 0
              CHANNELS 3 Zrotation Xrotation Yrotation
              End Site
              {
                OFFSET 0.00678979 7.75782 -0.894206
              }
            }
          }
        }
      }
    }
  }
  JOINT LeftUpLeg
  {
    OFFSET 7.06048 -1.2947 -1.08609
    CHANNELS 3 Zrotation Xrotation Yrotation
    JOINT LeftUpLegRoll
    {
      OFFSET 0 18.5309 0
      CHANNELS 3 Zrotation Xrotation Yrotation
      JOINT LeftLeg
      {
        OFFSET 0 22.9475 0
        CHANNELS 3 Zrotation Xrotation Yrotation
        JOINT LeftLegRoll
        {
          OFFSET 0 23.2355 0
          CHANNELS 3 Zrotation Xrotation Yrotation
          JOINT LeftFoot
          {
            OFFSET 0 18.9496 0
            CHANNELS 3 Zrotation Xrotation Yrotation
            JOINT LeftToeBase
            {
              OFFSET 0 16.0188 0
              CHANNELS 3 Zrotation Xrotation Yrotation
              End Site
              {
                OFFSET -0.0304289 7.75781 -0.894207
              }
            }
          }
        }
      }
    }
  }
}
MOTION
Frames: 10
Frame Time: 0.00208333
52.1186 95.417 10.9111 -0.493808 -3.74549 0.0570677 0.366947 -1.60804 0.10826 0.735743 0.787208 0.17908 0.734015 2.4322 0.166841 -7.29505 23.8556 0.924774 5.50083 -1.70024 -1.04216 70.1864 4.10686 0.630711 104.198 19.6563 31.4883 -6.70307e-006 -4.18201e-007 -2.36966e-006 -8.38626 -0.0635451 0.903375 1.32041e-006 -7.34319e-007 -3.105 8.03059 -4.95134 0.697614 -77.9419 1.44994 1.60808 -98.2146 20.2433 -32.9775 -9.54166e-015 -6.36111e-015 -3.18055e-015 10.4347 -0.0149346 -1.22686 1.7085e-005 1.50832e-006 2.99999 -8.03098 -4.95134 -0.697582 174.129 -2.16676 -0.894136 180 7.01528e-015 178.842 177.395 6.92445 179.563 1.37764e-006 -5.90568e-006 0.0505731 -18.6937 68.729 20.145 8.1374 25.2461 -3.4792 -172.863 0.286273 -0.320287 4.5067e-006 -1.99009e-005 -1.2627 -1.10336 -12.2424 0.174252 7.76093e-007 -3.05258e-006 -0.334841 21.735 71.1057 -22.5727 -8.14077 25.2978 3.39517 
52.113 95.4131 10.8947 -0.486546 -3.73337 0.048869 0.367812 -1.60974 0.109998 0.737877 0.783821 0.182381 0.73611 2.42882 0.170113 -7.36802 23.8241 0.934804 5.57614 -1.70258 -1.04724 70.1128 4.11554 0.64647 104.212 19.5316 31.5741 -6.70307e-006 -4.18201e-007 -2.36966e-006 -8.42052 -0.0635421 0.908868 1.32041e-006 -7.34318e-007 -3.10423 8.03059 -4.95134 0.697614 -77.997 1.43206 1.62175 -98.1514 20.158 -32.8088 1.59028e-015 -3.18055e-015 -6.36111e-015 10.1701 0.046129 -1.20927 1.7085e-005 1.50832e-006 2.99999 -8.03098 -4.95134 -0.697582 174.117 -2.15175 -0.889152 180 7.01528e-015 178.843 177.394 6.92435 179.562 1.37764e-006 -5.90568e-006 0.0503549 -18.6864 68.7257 20.142 8.1374 25.2461 -3.4792 -172.874 0.289439 -0.313422 4.5067e-006 -1.99009e-005 -1.26269 -1.10479 -12.2303 0.174039 7.76093e-007 -3.05258e-006 -0.334868 21.7294 71.1008 -22.5661 -8.14086 25.2991 3.39394 
52.0702 95.4089 10.8989 -0.479231 -3.72117 0.0407134 0.36867 -1.61145 0.111749 0.740024 0.780406 0.185669 0.738218 2.4254 0.173371 -7.44155 23.7924 0.944563 5.65285 -1.70446 -1.05266 70.0394 4.1248 0.662466 104.227 19.4081 31.6609 -6.70307e-006 -4.18201e-007 -2.36966e-006 -8.45679 -0.0635402 0.914662 1.32041e-006 -7.34319e-007 -3.10351 8.03059 -4.95134 0.697614 -78.0545 1.41501 1.63537 -98.0876 20.0724 -32.6392 6.36111e-015 -3.18055e-015 3.18055e-015 9.90397 0.10595 -1.1916 1.7085e-005 1.50832e-006 2.99999 -8.03098 -4.95134 -0.697582 174.105 -2.1365 -0.884214 180 7.01528e-015 178.843 177.393 6.9243 179.562 1.37764e-006 -5.90568e-006 0.0501424 -18.6789 68.7223 20.1388 8.1374 25.2461 -3.4792 -172.885 0.292789 -0.306494 4.5067e-006 -1.99009e-005 -1.26266 -1.10619 -12.2183 0.173839 7.76093e-007 -3.05258e-006 -0.334916 21.7237 71.0959 -22.5594 -8.14095 25.3005 3.3927 
52.0958 95.4139 10.9266 -0.471879 -3.70891 0.032588 0.369522 -1.61318 0.113508 0.742179 0.776973 0.188947 0.740334 2.42197 0.17662 -7.51547 23.7608 0.954133 5.73053 -1.70602 -1.05833 69.9662 4.13447 0.678629 104.243 19.2854 31.7483 -6.70307e-006 -4.18201e-007 -2.36966e-006 -8.49447 -0.0635391 0.920665 1.32041e-006 -7.34318e-007 -3.10281 8.03059 -4.95134 0.697614 -78.1136 1.39854 1.64896 -98.023 19.9864 -32.469 1.11319e-014 3.18055e-015 -3.18055e-015 9.63686 0.164902 -1.17387 1.7085e-005 1.50832e-006 2.99999 -8.03098 -4.95134 -0.697582 174.093 -2.1211 -0.87931 180 7.01528e-015 178.844 177.393 6.92433 179.561 1.37764e-006 -5.90568e-006 0.049934 -18.6715 68.7189 20.1356 8.1374 25.2461 -3.4792 -172.896 0.296269 -0.299523 4.5067e-006 -1.99009e-005 -1.26264 -1.10756 -12.2064 0.173648 7.76093e-007 -3.05258e-006 -0.334979 21.7179 71.0909 -22.5526 -8.14104 25.3018 3.39143 
52.1328 95.4189 10.9199 -0.464503 -3.69661 0.0244799 0.370371 -1.61491 0.115273 0.74434 0.773529 0.192219 0.742456 2.41852 0.179863 -7.58961 23.729 0.963593 5.80876 -1.7074 -1.06414 69.8931 4.14437 0.694887 104.261 19.1633 31.8362 -6.70307e-006 -4.18201e-007 -2.36966e-006 -8.53295 -0.0635383 0.926788 1.32041e-006 -7.34319e-007 -3.10212 8.03059 -4.95134 0.697614 -78.1737 1.3824 1.66253 -97.9579 19.9 -32.2986 4.77083e-015 -3.18055e-015 -6.36111e-015 9.36916 0.223357 -1.15612 1.7085e-005 1.50832e-006 2.99999 -8.03098 -4.95134 -0.697582 174.081 -2.10561 -0.874425 180 7.01528e-015 178.844 177.393 6.92437 179.561 1.37764e-006 -5.90568e-006 0.0497279 -18.664 68.7155 20.1324 8.1374 25.2461 -3.4792 -172.908 0.299823 -0.292528 4.5067e-006 -1.99009e-005 -1.26261 -1.10893 -12.1945 0.173463 7.76093e-007 -3.05258e-006 -0.335051 21.7121 71.0859 -22.5458 -8.14114 25.3032 3.39016 
52.13 95.4191 10.9112 -0.457119 -3.6843 0.0163764 0.371219 -1.61664 0.117039 0.746502 0.770082 0.195491 0.74458 2.41507 0.183105 -7.66379 23.6973 0.973021 5.88713 -1.70874 -1.06999 69.82 4.15433 0.711169 104.279 19.0414 31.9242 -6.70307e-006 -4.18201e-007 -2.36966e-006 -8.57163 -0.0635377 0.932942 1.32041e-006 -7.34318e-007 -3.10145 8.03059 -4.95134 0.697614 -78.2341 1.36635 1.6761 -97.8921 19.8131 -32.1284 4.77083e-015 -3.18055e-015 -6.36111e-015 9.10128 0.281689 -1.13836 1.7085e-005 1.50832e-006 2.99999 -8.03098 -4.95134 -0.697582 174.069 -2.09009 -0.869544 180 7.01528e-015 178.844 177.392 6.92445 179.56 1.37764e-006 -5.90568e-006 0.0495224 -18.6565 68.7121 20.1292 8.1374 25.2461 -3.4792 -172.919 0.303396 -0.285526 4.5067e-006 -1.99009e-005 -1.26257 -1.11029 -12.1825 0.173279 7.76093e-007 -3.05258e-006 -0.335126 21.7063 71.0809 -22.539 -8.14123 25.3046 3.38889 
52.1388 95.4219 10.9172 -0.449741 -3.67201 0.00826452 0.372069 -1.61837 0.118802 0.748662 0.76664 0.198764 0.746702 2.41163 0.18635 -7.73784 23.6656 0.982499 5.96523 -1.71017 -1.07576 69.7469 4.16417 0.727404 104.297 18.9195 32.0121 -6.70307e-006 -4.18201e-007 -2.36966e-006 -8.60992 -0.0635368 0.939035 1.32041e-006 -7.34319e-007 -3.10076 8.03059 -4.95134 0.697614 -78.2939 1.35013 1.68968 -97.8257 19.7257 -31.9586 4.77083e-015 0 -6.36111e-015 8.83365 0.34027 -1.12061 1.7085e-005 1.50832e-006 2.99999 -8.03098 -4.95134 -0.697582 174.057 -2.07462 -0.864654 180 7.01528e-015 178.845 177.392 6.92448 179.56 1.37764e-006 -5.90568e-006 0.0493157 -18.649 68.7087 20.126 8.1374 25.2461 -3.4792 -172.93 0.306931 -0.278536 4.5067e-006 -1.99009e-005 -1.26254 -1.11166 -12.1706 0.173093 7.76093e-007 -3.05258e-006 -0.335195 21.7005 71.0759 -22.5321 -8.14132 25.306 3.38762 
52.1482 95.4215 10.9107 -0.442385 -3.65977 0.000131441 0.372923 -1.62009 0.120559 0.750817 0.763212 0.202045 0.748817 2.4082 0.189601 -7.8116 23.6339 0.992104 6.04263 -1.71182 -1.08136 69.6736 4.17372 0.743521 104.315 18.7973 32.0994 -6.70307e-006 -4.18201e-007 -2.36966e-006 -8.64719 -0.0635354 0.944978 1.32041e-006 -7.34318e-007 -3.10005 8.03059 -4.95134 0.697614 -78.3526 1.33349 1.70328 -97.7587 19.6376 -31.7897 -0 0 3.18055e-015 8.56668 0.399473 -1.10291 1.7085e-005 1.50832e-006 2.99999 -8.03098 -4.95134 -0.697582 174.045 -2.05926 -0.859741 180 7.01528e-015 178.845 177.391 6.9245 179.56 1.37764e-006 -5.90568e-006 0.0491061 -18.6415 68.7053 20.1228 8.1374 25.2461 -3.4792 -172.942 0.310374 -0.271578 4.5067e-006 -1.99009e-005 -1.26252 -1.11304 -12.1587 0.1729 7.76093e-007 -3.05258e-006 -0.335255 21.6947 71.0709 -22.5254 -8.14142 25.3074 3.38636 
52.1408 95.4212 10.9131 -0.435064 -3.64759 -0.00803571 0.373784 -1.6218 0.122306 0.752962 0.759806 0.205337 0.750924 2.40479 0.192863 -7.88489 23.6023 1.00192 6.11891 -1.71384 -1.08668 69.6001 4.1828 0.759449 104.332 18.6743 32.1861 -6.70307e-006 -4.18201e-007 -2.36966e-006 -8.68286 -0.0635332 0.950682 1.32041e-006 -7.34318e-007 -3.09931 8.03059 -4.95134 0.697614 -78.4093 1.31619 1.71691 -97.6912 19.5489 -31.622 -3.18055e-015 -3.18055e-015 -1.27222e-014 8.30079 0.459672 -1.08527 1.7085e-005 1.50832e-006 2.99999 -8.03098 -4.95134 -0.697582 174.032 -2.04409 -0.854791 180 7.01528e-015 178.845 177.391 6.92442 179.559 1.37764e-006 -5.90568e-006 0.0488919 -18.6342 68.7019 20.1196 8.1374 25.2461 -3.4792 -172.953 0.313669 -0.264669 4.5067e-006 -1.99009e-005 -1.2625 -1.11444 -12.1467 0.172696 7.76093e-007 -3.05258e-006 -0.335296 21.689 71.066 -22.5188 -8.14151 25.3087 3.38512 
52.1509 95.4233 10.9344 -0.427793 -3.63551 -0.0162498 0.374653 -1.62349 0.124039 0.755095 0.756429 0.208643 0.753017 2.40142 0.19614 -7.95753 23.5708 1.01202 6.19367 -1.71636 -1.09161 69.5263 4.19125 0.775115 104.347 18.5505 32.2718 -6.70307e-006 -4.18201e-007 -2.36966e-006 -8.71631 -0.0635299 0.956055 1.32041e-006 -7.34318e-007 -3.09853 8.03059 -4.95134 0.697614 -78.4633 1.29799 1.73059 -97.6231 19.4594 -31.4558 3.02153e-014 1.90833e-014 -0 8.03641 0.521238 -1.06772 1.7085e-005 1.50832e-006 2.99999 -8.03098 -4.95134 -0.697582 174.02 -2.02916 -0.84979 180 7.01529e-015 178.846 177.39 6.92428 179.559 1.37764e-006 -5.90568e-006 0.0486713 -18.6268 68.6986 20.1166 8.1374 25.2461 -3.4792 -172.964 0.31676 -0.257829 4.5067e-006 -1.99009e-005 -1.26249 -1.11588 -12.1346 0.172477 7.76093e-007 -3.05258e-006 -0.335315 21.6835 71.0612 -22.5123 -8.14159 25.31 3.38391 
